<?xml version="1.0" encoding="iso-8859-1"?>
<svg xmlns="http://www.w3.org/2000/svg" xmlns:xlink="http://www.w3.org/1999/xlink" version="1.1" viewBox="0 0 60 60" enable-background="new 0 0 60 60" width="512px" height="512px">
  <g>
    <g>
      <path d="M48,19c0-8.837-7.163-16-16-16c-7.536,0-13.837,5.216-15.535,12.23C15.664,15.087,14.843,15,14,15C6.268,15,0,21.268,0,29    s6.268,14,14,14v-2C7.373,41,2,35.627,2,29c0-6.627,5.373-12,12-12c1.429,0,2.794,0.263,4.065,0.721C18.711,10.589,24.7,5,32,5    c7.732,0,14,6.268,14,14c0,0.768-0.078,1.516-0.197,2.25C46.511,21.091,47.244,21,48,21c5.523,0,10,4.477,10,10s-4.477,10-10,10v2    c6.627,0,12-5.373,12-12C60,24.373,54.627,19,48,19z" fill="#006DF0"/>
    </g>
  </g>
  <g>
    <g>
      <path d="m19,41c-0.552,0-1,0.448-1,1v6c0,0.552 0.448,1 1,1s1-0.448 1-1v-6c0-0.552-0.448-1-1-1zm6,8c-0.552,0-1,0.448-1,1v6c0,0.552 0.448,1 1,1s1-0.448 1-1v-6c0-0.552-0.448-1-1-1zm6-8c-0.552,0-1,0.448-1,1v6c0,0.552 0.448,1 1,1s1-0.448 1-1v-6c0-0.552-0.448-1-1-1zm6,8c-0.552,0-1,0.448-1,1v6c0,0.552 0.448,1 1,1s1-0.448 1-1v-6c0-0.552-0.448-1-1-1zm6-8c-0.552,0-1,0.448-1,1v6c0,0.552 0.448,1 1,1s1-0.448 1-1v-6c0-0.552-0.448-1-1-1zm-29-20c-4.418,0-8,3.582-8,8 0,0.552 0.448,1 1,1 0.552,0 1-0.448 1-1 0-3.314 2.686-6 6-6 0.552,0 1-0.448 1-1 0-0.552-0.448-1-1-1zm18-12c-0.552,0-1,0.448-1,1 0,0.552 0.448,1 1,1 4.418,0 8,3.582 8,8 0,0.552 0.448,1 1,1 0.552,0 1-0.448 1-1 0-5.523-4.477-10-10-10z" fill="#006DF0"/>
    </g>
  </g>
</svg>
